<svg xmlns="http://www.w3.org/2000/svg" viewBox="0 0 320 420" role="img" aria-label="Salmon Innovations mark">
  <path d="M51 205C90 112 166 50 289 30c0 32-8 62-24 91-57 11-115 39-174 86 37-50 82-89 134-116-63 17-120 56-171 116-1-1-2-1-3-2z" fill="#ff4616"/>
  <path d="M42 222C84 151 140 95 211 54 153 102 105 161 68 232c56-46 119-82 190-108-34 51-82 94-143 130 42-16 78-22 108-18-22 50-64 96-126 136 9-58-10-108-55-150z" fill="#071f46"/>
  <path d="M38 232c18 20 31 45 39 75 8 31 8 60 0 88-24-22-41-51-50-86 18-34 43-65 76-94-25 8-48 21-67 39-2-8-2-15 2-22z" fill="#071f46"/>
  <path d="M92 291c31-22 64-41 99-56-25 30-56 59-94 87 37-16 73-24 109-24-17 40-48 77-93 111 5-43-2-83-21-118z" fill="#071f46"/>
  <path d="M60 207C104 135 160 83 228 50 170 94 122 151 82 220c49-37 104-66 166-87-54 30-108 66-161 108-12-11-21-22-27-34z" fill="#ffffff"/>
  <path d="M83 264c49-36 101-64 156-82-43 34-90 65-140 93 29-8 56-13 82-14-28 16-58 35-90 58-2-20-5-38-8-55z" fill="#ffffff"/>
  <path d="M45 296c27-30 59-57 96-81-39 42-69 90-90 144-8-23-10-44-6-63z" fill="#ffffff"/>
  <path d="M62 236c8-13 18-26 29-39-14 39-20 79-18 120-10-32-14-59-11-81z" fill="#ffffff"/>
  <path d="M249 56a11 11 0 1 0 22 0 11 11 0 0 0-22 0z" fill="#fff7f3"/>
  <path d="M49 205c8-33 15-60 22-82 9 14 16 29 22 46-15 9-30 21-44 36z" fill="#ff4616"/>
</svg>
